<svg width="79" height="23" viewBox="0 0 79 23" fill="none" xmlns="http://www.w3.org/2000/svg">
<path d="M0.408 17V0.72H7.272C7.8 0.72 8.33533 0.786 8.878 0.918C9.43533 1.03533 9.94133 1.28467 10.396 1.666C10.8653 2.03267 11.2393 2.59 11.518 3.338C11.8113 4.086 11.958 5.076 11.958 6.308C11.958 7.54 11.8113 8.53733 11.518 9.3C11.2393 10.0627 10.8727 10.642 10.418 11.038C9.96333 11.434 9.472 11.698 8.944 11.83C8.416 11.962 7.90267 12.028 7.404 12.028C7.14 12.028 6.832 12.0207 6.48 12.006C6.128 11.9767 5.76867 11.94 5.402 11.896C5.05 11.852 4.72 11.8153 4.412 11.786C4.104 11.742 3.85467 11.7053 3.664 11.676V17H0.408ZM3.664 9.102H6.898C7.27933 9.102 7.602 9.014 7.866 8.838C8.14467 8.64733 8.35 8.354 8.482 7.958C8.614 7.54733 8.68 7.00467 8.68 6.33C8.68 5.67 8.60667 5.14933 8.46 4.768C8.328 4.372 8.13 4.086 7.866 3.91C7.61667 3.734 7.316 3.646 6.964 3.646H3.664V9.102ZM18.7632 17.11C17.7952 17.11 16.9666 17.0147 16.2772 16.824C15.5879 16.6187 15.0232 16.2813 14.5832 15.812C14.1579 15.3427 13.8426 14.7193 13.6372 13.942C13.4466 13.1647 13.3512 12.204 13.3512 11.06C13.3512 9.85733 13.4466 8.86733 13.6372 8.09C13.8426 7.298 14.1579 6.682 14.5832 6.242C15.0232 5.78733 15.5879 5.472 16.2772 5.296C16.9812 5.10533 17.8099 5.01 18.7632 5.01C19.7459 5.01 20.5819 5.10533 21.2712 5.296C21.9606 5.48667 22.5179 5.80933 22.9432 6.264C23.3832 6.704 23.6986 7.32 23.8892 8.112C24.0946 8.88933 24.1972 9.872 24.1972 11.06C24.1972 12.2333 24.1019 13.216 23.9112 14.008C23.7206 14.7853 23.4126 15.4013 22.9872 15.856C22.5619 16.3107 21.9972 16.6333 21.2932 16.824C20.6039 17.0147 19.7606 17.11 18.7632 17.11ZM18.7632 14.514C19.1592 14.514 19.4892 14.4773 19.7532 14.404C20.0319 14.3307 20.2519 14.184 20.4132 13.964C20.5892 13.7293 20.7212 13.3773 20.8092 12.908C20.8972 12.4387 20.9412 11.8227 20.9412 11.06C20.9412 10.2827 20.8972 9.66667 20.8092 9.212C20.7212 8.74267 20.5892 8.398 20.4132 8.178C20.2519 7.94333 20.0319 7.78933 19.7532 7.716C19.4892 7.64267 19.1592 7.606 18.7632 7.606C18.3819 7.606 18.0519 7.64267 17.7732 7.716C17.5092 7.78933 17.2892 7.94333 17.1132 8.178C16.9372 8.398 16.8052 8.74267 16.7172 9.212C16.6439 9.66667 16.6072 10.2827 16.6072 11.06C16.6072 11.8227 16.6439 12.4387 16.7172 12.908C16.8052 13.3773 16.9372 13.7293 17.1132 13.964C17.2892 14.184 17.5092 14.3307 17.7732 14.404C18.0519 14.4773 18.3819 14.514 18.7632 14.514ZM26.3575 22.214V5.186H29.0855L29.6135 6.308C29.8922 6.088 30.2002 5.88267 30.5375 5.692C30.8748 5.48667 31.2415 5.32533 31.6375 5.208C32.0335 5.076 32.4515 5.01 32.8915 5.01C33.6102 5.01 34.2335 5.14933 34.7615 5.428C35.3042 5.70667 35.7442 6.11 36.0815 6.638C36.4188 7.166 36.6682 7.81133 36.8295 8.574C36.9908 9.322 37.0715 10.1653 37.0715 11.104C37.0715 12.3653 36.9468 13.4507 36.6975 14.36C36.4482 15.2693 36.0155 15.966 35.3995 16.45C34.7982 16.9193 33.9622 17.154 32.8915 17.154C32.3342 17.154 31.7622 17.088 31.1755 16.956C30.6035 16.824 30.0828 16.6333 29.6135 16.384V22.214H26.3575ZM31.8355 14.47C32.1728 14.47 32.4955 14.382 32.8035 14.206C33.1115 14.0153 33.3535 13.678 33.5295 13.194C33.7202 12.71 33.8155 12.0133 33.8155 11.104C33.8155 10.224 33.7275 9.53467 33.5515 9.036C33.3902 8.52267 33.1628 8.16333 32.8695 7.958C32.5762 7.738 32.2315 7.628 31.8355 7.628C31.3808 7.628 30.9628 7.70133 30.5815 7.848C30.2002 7.99467 29.8775 8.14133 29.6135 8.288V13.898C29.9068 14.074 30.2515 14.2133 30.6475 14.316C31.0435 14.4187 31.4395 14.47 31.8355 14.47ZM42.5707 17.132C41.5147 17.132 40.686 16.824 40.0847 16.208C39.4833 15.5773 39.1827 14.69 39.1827 13.546V5.186H42.4387V12.578C42.4387 13.238 42.5927 13.6853 42.9007 13.92C43.2233 14.14 43.6413 14.25 44.1547 14.25C44.5653 14.25 44.9833 14.1767 45.4087 14.03C45.8487 13.8687 46.2373 13.656 46.5747 13.392V5.186H49.8527V17H47.1467L46.5747 15.79C46.0467 16.142 45.438 16.4573 44.7487 16.736C44.0593 17 43.3333 17.132 42.5707 17.132ZM56.0066 17.044C55.1706 17.044 54.474 16.912 53.9166 16.648C53.374 16.3693 52.9706 15.9513 52.7066 15.394C52.4426 14.822 52.3106 14.0887 52.3106 13.194V0.214H55.5666V12.71C55.5666 13.15 55.6106 13.502 55.6986 13.766C55.7866 14.0153 55.9186 14.1987 56.0946 14.316C56.2853 14.4333 56.52 14.514 56.7986 14.558L57.7006 14.69V17.044H56.0066ZM61.7151 17.132C60.8205 17.132 60.0945 16.868 59.5371 16.34C58.9798 15.812 58.7011 15.0787 58.7011 14.14V13.084C58.7011 12.1893 59.0165 11.456 59.6471 10.884C60.2778 10.2973 61.2605 10.004 62.5951 10.004H65.6091V9.19C65.6091 8.82333 65.5431 8.52267 65.4111 8.288C65.2791 8.03867 65.0298 7.86267 64.6631 7.76C64.3111 7.64267 63.7685 7.584 63.0351 7.584H59.4931V5.692C60.0651 5.516 60.7251 5.362 61.4731 5.23C62.2358 5.098 63.1525 5.032 64.2231 5.032C65.2058 5.032 66.0418 5.14933 66.7311 5.384C67.4351 5.61867 67.9631 6.022 68.3151 6.594C68.6818 7.166 68.8651 7.958 68.8651 8.97V17H66.2911L65.7631 15.746C65.6605 15.8633 65.4845 15.9953 65.2351 16.142C64.9858 16.2887 64.6778 16.4427 64.3111 16.604C63.9591 16.7507 63.5558 16.8753 63.1011 16.978C62.6611 17.0807 62.1991 17.132 61.7151 17.132ZM63.3651 14.866C63.5118 14.866 63.6731 14.8513 63.8491 14.822C64.0398 14.778 64.2305 14.734 64.4211 14.69C64.6265 14.6313 64.8098 14.58 64.9711 14.536C65.1471 14.4773 65.2865 14.426 65.3891 14.382C65.5065 14.338 65.5798 14.3087 65.6091 14.294V11.544L63.6291 11.676C63.0571 11.72 62.6318 11.8667 62.3531 12.116C62.0891 12.3653 61.9571 12.7027 61.9571 13.128V13.612C61.9571 13.9053 62.0158 14.1473 62.1331 14.338C62.2651 14.5287 62.4338 14.668 62.6391 14.756C62.8591 14.8293 63.1011 14.866 63.3651 14.866ZM71.3028 17V5.186H73.8108L74.5588 6.99C74.9842 6.44733 75.4608 5.98533 75.9888 5.604C76.5315 5.22267 77.1695 5.032 77.9028 5.032C78.0642 5.032 78.2255 5.03933 78.3868 5.054C78.5628 5.06867 78.7242 5.098 78.8708 5.142V8.486C78.6508 8.45667 78.4162 8.43467 78.1668 8.42C77.9322 8.39067 77.7048 8.376 77.4848 8.376C77.0595 8.376 76.6708 8.42733 76.3188 8.53C75.9815 8.618 75.6662 8.75733 75.3728 8.948C75.0942 9.124 74.8228 9.35867 74.5588 9.652V17H71.3028Z" fill="white"/>
</svg>
