<svg width="40" height="40" viewBox="0 0 40 40" fill="none" xmlns="http://www.w3.org/2000/svg">
<rect width="40" height="40" rx="10" fill="#515151"/>
<path fill-rule="evenodd" clip-rule="evenodd" d="M27.5429 8.79993H13.2572C11.6792 8.79993 10.4001 10.0791 10.4001 11.6571V15.9428C10.4001 17.5207 11.6792 18.7999 13.2572 18.7999H27.5429C29.1209 18.7999 30.4001 17.5207 30.4001 15.9428V11.6571C30.4001 10.0791 29.1209 8.79993 27.5429 8.79993ZM11.8287 11.6571C11.8287 10.8681 12.4683 10.2285 13.2573 10.2285H27.543C28.3319 10.2285 28.9715 10.8681 28.9715 11.6571V15.9428C28.9715 16.7318 28.3319 17.3714 27.543 17.3714H13.2573C12.4683 17.3714 11.8287 16.7318 11.8287 15.9428V11.6571ZM13.2572 21.6571H27.5429C29.1209 21.6571 30.4001 22.9362 30.4001 24.5142V28.7999C30.4001 30.3779 29.1209 31.6571 27.5429 31.6571H13.2572C11.6792 31.6571 10.4001 30.3779 10.4001 28.7999V24.5142C10.4001 22.9362 11.6792 21.6571 13.2572 21.6571ZM11.8287 24.5141C11.8287 23.7252 12.4683 23.0856 13.2573 23.0856H27.543C28.3319 23.0856 28.9715 23.7252 28.9715 24.5141V28.7999C28.9715 29.5888 28.3319 30.2284 27.543 30.2284H13.2573C12.4683 30.2284 11.8287 29.5888 11.8287 28.7999V24.5141Z" fill="#FFFDF5"/>
</svg>
